<svg id="Layer_1" data-name="Layer 1" xmlns="http://www.w3.org/2000/svg" viewBox="0 0 69.09 67.89"><defs><style>.cls-1{fill:#08f29b;}</style></defs><title>Call</title><path class="cls-1" d="M57.41,42.34,46.2,36.94a1.17,1.17,0,0,0-1.22.17,27,27,0,0,0-5,5.81A27.79,27.79,0,0,1,24.31,29.27a12.9,12.9,0,0,0,3.83-5.4,1,1,0,0,0-.06-.81L23.26,11.85a1.14,1.14,0,0,0-1.1-.7l-5.23.17a1,1,0,0,0-.58.17c-6.8,4.24-6,12.43-6,12.78,0,.12,0,.17.06.23A52.15,52.15,0,0,0,15.54,36c9,13.88,21.84,17.48,23.06,17.77a20.62,20.62,0,0,0,7.14,1.45c7.2,0,11-4.76,11.44-5.69.58-1.28.76-5,.81-6.1A1.1,1.1,0,0,0,57.41,42.34Zm-2.27,6.16a11.49,11.49,0,0,1-9.41,4.41,18.66,18.66,0,0,1-6.39-1.28.2.2,0,0,1-.12-.06A40.23,40.23,0,0,1,17.51,34.79a50.58,50.58,0,0,1-4.88-10.86c-.06-.93-.23-7,4.65-10.34l4.12-.17,4.3,10a12.12,12.12,0,0,1-3.6,4.47,1.16,1.16,0,0,0-.35,1.34c.17.46,4.53,11.62,18.35,16.09a1.11,1.11,0,0,0,1.34-.52,28,28,0,0,1,4.41-5.52l9.87,4.76A20.51,20.51,0,0,1,55.15,48.49Z"/><path class="cls-1" d="M22.57,25.38a1.15,1.15,0,0,0,.81-.35,1.12,1.12,0,0,0,0-1.63c-2.44-2.44-4.12-7.9-4.18-8a1.16,1.16,0,1,0-2.21.7c.06.23,1.86,6.1,4.76,8.89A1.15,1.15,0,0,0,22.57,25.38Z"/><path class="cls-1" d="M44.23,42.16a1.13,1.13,0,0,0,.12,1.63c.12.12,2.73,2.38,8.31,4a.44.44,0,0,0,.29.06A1.13,1.13,0,0,0,54,47a1.16,1.16,0,0,0-.81-1.45c-5-1.45-7.38-3.48-7.38-3.54A1.13,1.13,0,0,0,44.23,42.16Z"/></svg>