<svg id="Layer_1" data-name="Layer 1" xmlns="http://www.w3.org/2000/svg" xmlns:xlink="http://www.w3.org/1999/xlink" viewBox="0 0 849.71 328.85"><defs><style>.cls-1{fill:none;}.cls-2{fill:#2ac1f0;}.cls-3{clip-path:url(#clip-path);}.cls-4{fill:#22cddc;}.cls-5{fill:#2cd;}.cls-6{fill:#23ccde;}.cls-7{fill:#23cbdf;}.cls-8{fill:#24cae0;}.cls-9{fill:#24cae1;}.cls-10{fill:#24c9e2;}.cls-11{fill:#25c9e3;}.cls-12{fill:#25c8e4;}.cls-13{fill:#26c7e5;}.cls-14{fill:#26c7e6;}.cls-15{fill:#26c6e7;}.cls-16{fill:#27c6e8;}.cls-17{fill:#11e6b0;}.cls-18{fill:#11e5b1;}.cls-19{fill:#11e5b2;}.cls-20{fill:#12e4b3;}.cls-21{fill:#12e3b4;}.cls-22{fill:#13e3b5;}.cls-23{fill:#13e2b6;}.cls-24{fill:#13e2b7;}.cls-25{fill:#14e1b8;}.cls-26{fill:#14e1b9;}.cls-27{fill:#15e0ba;}.cls-28{fill:#15dfbb;}.cls-29{fill:#15dfbc;}.cls-30{fill:#10e6af;}.cls-31{fill:#08f29b;}.cls-32{fill:#08f19c;}.cls-33{fill:#09f19d;}.cls-34{fill:#09f09e;}.cls-35{fill:#0af09f;}.cls-36{fill:#0aefa0;}.cls-37{fill:#0aefa1;}.cls-38{fill:#0beea2;}.cls-39{fill:#0beda3;}.cls-40{fill:#0ceda4;}.cls-41{fill:#0ceca5;}.cls-42{fill:#0ceca6;}.cls-43{fill:#1cd5cd;}.cls-44{fill:#1cd5ce;}.cls-45{fill:#1dd4cf;}.cls-46{fill:#1dd4d0;}.cls-47{fill:#1dd3d1;}.cls-48{fill:#1ed3d2;}.cls-49{fill:#1ed2d3;}.cls-50{fill:#1fd1d4;}.cls-51{fill:#1fd1d5;}.cls-52{fill:#1fd0d6;}.cls-53{fill:#20d0d7;}.cls-54{fill:#20cfd8;}.cls-55{fill:#21ced9;}.cls-56{fill:#21ceda;}.cls-57{fill:#22cddb;}.cls-58{fill:#27c5e9;}.cls-59{fill:#28c5ea;}.cls-60{fill:#28c4eb;}.cls-61{fill:#28c3ec;}.cls-62{fill:#29c3ed;}.cls-63{fill:#29c2ee;}.cls-64{fill:#2ac2ef;}.cls-65{fill:#0deba7;}.cls-66{fill:#0deaa8;}.cls-67{fill:#0eeaa9;}.cls-68{fill:#0ee9aa;}.cls-69{fill:#0ee9ab;}.cls-70{fill:#0fe8ac;}.cls-71{fill:#0fe8ad;}.cls-72{fill:#10e7ae;}.cls-73{fill:#16debd;}.cls-74{fill:#16debe;}.cls-75{fill:#17ddbf;}.cls-76{fill:#17dcc0;}.cls-77{fill:#17dcc1;}.cls-78{fill:#18dbc2;}.cls-79{fill:#18dbc3;}.cls-80{fill:#19dac4;}.cls-81{fill:#19dac6;}.cls-82{fill:#19d9c7;}.cls-83{fill:#1ad8c8;}.cls-84{fill:#1ad8c9;}.cls-85{fill:#1bd7ca;}.cls-86{fill:#1bd7cb;}.cls-87{fill:#1bd6cc;}</style><clipPath id="clip-path"><path class="cls-1" d="M303.75,233,287,258.75c-.91-.4-1.77-.74-2.6-1.15-5.9-2.86-11.8-5.71-17.67-8.61a3.14,3.14,0,0,0-3.34,0q-18.6,10.7-37.26,21.3c-.2.12-.38.28-.82.6l-.7,24.06-30.6.58c-.63-15.84-1-31.53-1.54-47.24.77-.47,1.43-.9,2.12-1.29q33.73-18.77,67.44-37.58a3.79,3.79,0,0,1,4.52.15c11.69,7.4,23.43,14.7,35.16,22C302.34,232,302.92,232.44,303.75,233ZM79.1,92.69c11.88,7.38,23.78,14.73,35.62,22.16,1.44.9,2.4.54,3.66-.2q32.88-19.28,65.8-38.49c1.57-.92,3.13-1.87,4.65-2.77l-1.46-44.48-30.79.67L156,53.81c-12.94,7.38-25.72,14.65-38.47,21.95a2.55,2.55,0,0,1-2.68-.06c-2.93-1.46-5.9-2.85-8.85-4.26L94.37,65.91,77.73,91.72C78.32,92.14,78.69,92.44,79.1,92.69Zm1,46.56c-.07,14.15-.16,28.3-.19,42.44a2.93,2.93,0,0,1-1.53,2.71c-4.39,2.92-8.75,5.9-13.11,8.86-1.84,1.25-3.66,2.51-5.65,3.88l14.11,27.41c.81-.4,1.38-.67,1.93-1,11.92-6.33,23.83-12.69,35.78-19a3.53,3.53,0,0,0,2.25-3.67c-.1-8.23,0-16.47,0-24.7q.08-27.22.15-54.44c0-.79,0-1.57,0-2.4L74.13,98.25l-14.81,27L80,137.71C80,138.3,80.08,138.77,80.07,139.25ZM185.48,249.09Q150.59,229,115.72,208.83a3,3,0,0,0-3.48,0c-11.29,6.82-22.62,13.57-33.93,20.35-.58.35-1.12.77-1.75,1.21L92,257l21.34-11.23a11,11,0,0,1,1,.47q18.39,11.06,36.78,22.11a2.89,2.89,0,0,1,1.53,2.7c.28,6.07.61,12.13,1,18.19.08,1.41.27,2.82.42,4.37l30.66,2L187,250.07C186.41,249.7,186,249.37,185.48,249.09Zm7.9-218.71q-.22,8.86-.41,17.73c-.16,7-.27,14.06-.51,21.08a3.8,3.8,0,0,0,2.18,4c17.2,9.83,34.34,19.76,51.5,29.66l20.45,11.79,36.67-23.47L287.1,65l-21,11.76c-.54-.25-1-.43-1.4-.66q-18.55-10.53-37.1-21a3,3,0,0,1-1.6-2.68c-.33-4.62-.7-9.24-1.08-13.86-.23-2.77-.49-5.53-.75-8.51l-30.58-1.19A13.09,13.09,0,0,0,193.38,30.38ZM54.2,142.5a17.81,17.81,0,0,0-.06,35.62,17.81,17.81,0,0,0,.06-35.62Zm65.61,158.25a17.77,17.77,0,1,0,.2-35.53,17.77,17.77,0,0,0-.2,35.53Zm3.41-242a17.78,17.78,0,0,0,0-35.55c-11-.05-18.29,9.29-17.79,17.77A17.49,17.49,0,0,0,123.22,58.75ZM242.92,288.2c-.07,9.76,7.1,18,17.51,18.12a17.73,17.73,0,1,0-17.51-18.12ZM240,41.36a17.73,17.73,0,1,0,35.45.21A17.73,17.73,0,0,0,240,41.36Z"/></clipPath></defs><title>GoTo_Logo</title><path class="cls-2" d="M179.16,159.44h19.76v29.09a52.67,52.67,0,0,1-14.45,6.55,55.91,55.91,0,0,1-16,2.58A39.66,39.66,0,0,1,149,193a34.57,34.57,0,0,1-13.45-13,36.28,36.28,0,0,1-4.87-18.72,34.8,34.8,0,0,1,19.06-31.57A42.89,42.89,0,0,1,169.93,125a47.53,47.53,0,0,1,16.33,3A41.88,41.88,0,0,1,200,135.91L187,151.7a26.09,26.09,0,0,0-8.19-5.51,22.71,22.71,0,0,0-9-2,14.68,14.68,0,0,0-7.94,2.23,15.26,15.26,0,0,0-5.56,6.11,20.32,20.32,0,0,0,0,17.62,15.52,15.52,0,0,0,5.61,6.16,14.86,14.86,0,0,0,8,2.23,23.34,23.34,0,0,0,9.13-2.38Z"/><path class="cls-2" d="M250.85,144.4a25.11,25.11,0,0,1,10.72,9.73,30.69,30.69,0,0,1,0,29.49,25.41,25.41,0,0,1-10.72,9.78,39.43,39.43,0,0,1-32.37,0,25.4,25.4,0,0,1-10.72-9.78,30.69,30.69,0,0,1,0-29.49,25.09,25.09,0,0,1,10.72-9.73,39.95,39.95,0,0,1,32.37,0Zm-22.09,17.13a14.2,14.2,0,0,0,0,15.29,7.5,7.5,0,0,0,11.82,0,14.2,14.2,0,0,0,0-15.29,7.5,7.5,0,0,0-11.82,0Z"/><path class="cls-2" d="M261.38,126.48H324v18.17H304.17v51.43h-23V144.65H261.38Z"/><path class="cls-2" d="M366.92,144.4a25.11,25.11,0,0,1,10.72,9.73,30.69,30.69,0,0,1,0,29.49,25.41,25.41,0,0,1-10.72,9.78,39.43,39.43,0,0,1-32.37,0,25.4,25.4,0,0,1-10.72-9.78,30.69,30.69,0,0,1,0-29.49,25.09,25.09,0,0,1,10.72-9.73,39.95,39.95,0,0,1,32.37,0Zm-22.09,17.13a14.2,14.2,0,0,0,0,15.29,7.5,7.5,0,0,0,11.82,0,14.2,14.2,0,0,0,0-15.29,7.5,7.5,0,0,0-11.82,0Z"/><path class="cls-2" d="M410.39,180.19q4.77,5.56,12.91,5.56t12.91-5.56Q441,174.63,441,165.1V126.67h11.72V165.6q0,15-8.24,23.08t-21.15,8.09q-12.91,0-21.15-8.09t-8.24-23.08V126.67h11.72V165.1Q405.62,174.63,410.39,180.19Z"/><path class="cls-2" d="M469.86,167.48v28.6H458.74V143.26h11.12v9.63a20,20,0,0,1,17.58-10.43q8.94,0,14.45,5.46t5.51,15.79v32.37H496.28v-29q0-14.6-12.11-14.6a14.55,14.55,0,0,0-10,3.82Q469.86,160.14,469.86,167.48Z"/><path class="cls-2" d="M515.64,132.73a7,7,0,1,1,5,2.08A6.78,6.78,0,0,1,515.64,132.73Zm10.43,63.35H514.94V143.26h11.12Z"/><path class="cls-2" d="M552.18,196.08l-21.25-52.82h11.52l16.09,39.92,16.08-39.92h11.52l-21.25,52.82Z"/><path class="cls-2" d="M636.18,174.53h-41.4a12,12,0,0,0,5.26,9.28,18.47,18.47,0,0,0,11.12,3.53q9.93,0,15.09-6.26l6.35,7q-8.54,8.84-22.24,8.84a26.47,26.47,0,0,1-18.92-7.4q-7.8-7.4-7.79-19.86t7.94-19.81a26.66,26.66,0,0,1,18.72-7.35,27.11,27.11,0,0,1,18.32,6.5q7.54,6.5,7.55,17.92Zm-41.4-8.74h30.28q0-6.65-4.17-10.23A15.24,15.24,0,0,0,610.61,152a17.59,17.59,0,0,0-11,3.72A12,12,0,0,0,594.77,165.8Z"/><path class="cls-2" d="M670.13,153.68q-8.24,0-12.41,5.36t-4.17,14.4v22.64H642.43V143.26h11.12v10.62a23,23,0,0,1,7.3-8.14,17.59,17.59,0,0,1,9.78-3.28l.1,11.22Z"/><path class="cls-2" d="M715.51,180.29A14.86,14.86,0,0,1,710,192.36q-5.46,4.52-14,4.52a37.48,37.48,0,0,1-12-2.08,35.9,35.9,0,0,1-11-5.86l5.36-8.64q9.23,7,17.87,7a9.32,9.32,0,0,0,6-1.74,5.41,5.41,0,0,0,2.18-4.42q0-4-10.53-7.15a12.46,12.46,0,0,0-1.19-.4q-16.48-4.47-16.48-14.89A14.13,14.13,0,0,1,682,146.88q5.71-4.42,14.85-4.42a30.88,30.88,0,0,1,17.28,5.36l-4.17,8.24a24.89,24.89,0,0,0-14-4.27,12.78,12.78,0,0,0-6.45,1.44,4.68,4.68,0,0,0-2.48,4.32,3.94,3.94,0,0,0,2.58,3.77,24.93,24.93,0,0,0,5,1.69q3.23.8,5.71,1.59t4.81,1.79a31.33,31.33,0,0,1,5,2.78Q715.51,172.75,715.51,180.29Z"/><path class="cls-2" d="M720.87,132.73a7,7,0,1,1,5,2.08A6.78,6.78,0,0,1,720.87,132.73Zm10.43,63.35H720.18V143.26H731.3Z"/><path class="cls-2" d="M753.14,152.19V179a8.71,8.71,0,0,0,2,6,7.05,7.05,0,0,0,5.56,2.23q3.57,0,6.85-3.48l4.57,7.84a19,19,0,0,1-13,5.26A16.67,16.67,0,0,1,747,192q-5-4.91-5-13.25V152.19h-6.65v-8.94H742V126.67h11.12v16.58H767v8.94Z"/><path class="cls-2" d="M783.62,217.13a19.13,19.13,0,0,1-13.11-5.26l5.06-9a10.48,10.48,0,0,0,7.2,3.28,7.65,7.65,0,0,0,6.06-2.68,8.75,8.75,0,0,0,2.33-5.86q0-1.39-21.35-54.31h11.92l15.79,38.92,15.79-38.92h11.92L799.61,206a19.11,19.11,0,0,1-6.55,8.14A16.13,16.13,0,0,1,783.62,217.13Z"/><g class="cls-3"><rect class="cls-4" x="239.97" y="23.76" width="0.88" height="35.47"/><rect class="cls-5" x="240.84" y="23.76" width="3.15" height="35.47"/><rect class="cls-6" x="243.99" y="23.76" width="3.15" height="35.47"/><rect class="cls-7" x="247.13" y="23.76" width="3.15" height="35.47"/><rect class="cls-8" x="250.28" y="23.76" width="3.15" height="35.47"/><rect class="cls-9" x="253.42" y="23.76" width="3.15" height="35.47"/><rect class="cls-10" x="256.57" y="23.76" width="3.15" height="35.47"/><rect class="cls-11" x="259.71" y="23.76" width="3.15" height="35.47"/><rect class="cls-12" x="262.86" y="23.76" width="3.15" height="35.47"/><rect class="cls-13" x="266.01" y="23.76" width="3.15" height="35.47"/><rect class="cls-14" x="269.15" y="23.76" width="3.15" height="35.47"/><rect class="cls-15" x="272.3" y="23.76" width="3.15" height="35.47"/><rect class="cls-16" x="275.44" y="23.76" width="0.03" height="35.47"/><rect class="cls-5" x="242.86" y="270.68" width="1.13" height="35.8"/><rect class="cls-6" x="243.99" y="270.68" width="3.15" height="35.8"/><rect class="cls-7" x="247.13" y="270.68" width="3.15" height="35.8"/><rect class="cls-8" x="250.28" y="270.68" width="3.15" height="35.8"/><rect class="cls-9" x="253.42" y="270.68" width="3.15" height="35.8"/><rect class="cls-10" x="256.57" y="270.68" width="3.15" height="35.8"/><rect class="cls-11" x="259.71" y="270.68" width="3.15" height="35.8"/><rect class="cls-12" x="262.86" y="270.68" width="3.15" height="35.8"/><rect class="cls-13" x="266.01" y="270.68" width="3.15" height="35.8"/><rect class="cls-14" x="269.15" y="270.68" width="3.15" height="35.8"/><rect class="cls-15" x="272.3" y="270.68" width="3.15" height="35.8"/><rect class="cls-16" x="275.44" y="270.68" width="3.12" height="35.8"/><rect class="cls-17" x="104.94" y="23.14" width="0.66" height="35.65"/><rect class="cls-18" x="105.6" y="23.14" width="3.15" height="35.65"/><rect class="cls-19" x="108.75" y="23.14" width="3.15" height="35.65"/><rect class="cls-20" x="111.89" y="23.14" width="3.15" height="35.65"/><rect class="cls-21" x="115.04" y="23.14" width="3.15" height="35.65"/><rect class="cls-22" x="118.18" y="23.14" width="3.15" height="35.65"/><rect class="cls-23" x="121.33" y="23.14" width="3.15" height="35.65"/><rect class="cls-24" x="124.47" y="23.14" width="3.15" height="35.65"/><rect class="cls-25" x="127.62" y="23.14" width="3.15" height="35.65"/><rect class="cls-26" x="130.76" y="23.14" width="3.15" height="35.65"/><rect class="cls-27" x="133.91" y="23.14" width="3.15" height="35.65"/><rect class="cls-28" x="137.05" y="23.14" width="3.15" height="35.65"/><rect class="cls-29" x="140.2" y="23.14" width="0.7" height="35.65"/><rect class="cls-30" x="102.16" y="265.18" width="0.29" height="35.6"/><rect class="cls-17" x="102.45" y="265.18" width="3.15" height="35.6"/><rect class="cls-18" x="105.6" y="265.18" width="3.15" height="35.6"/><rect class="cls-19" x="108.75" y="265.18" width="3.15" height="35.6"/><rect class="cls-20" x="111.89" y="265.18" width="3.15" height="35.6"/><rect class="cls-21" x="115.04" y="265.18" width="3.15" height="35.6"/><rect class="cls-22" x="118.18" y="265.18" width="3.15" height="35.6"/><rect class="cls-23" x="121.33" y="265.18" width="3.15" height="35.6"/><rect class="cls-24" x="124.47" y="265.18" width="3.15" height="35.6"/><rect class="cls-25" x="127.62" y="265.18" width="3.15" height="35.6"/><rect class="cls-26" x="130.76" y="265.18" width="3.15" height="35.6"/><rect class="cls-27" x="133.91" y="265.18" width="3.15" height="35.6"/><rect class="cls-28" x="137.05" y="265.18" width="0.66" height="35.6"/><rect class="cls-31" x="36.35" y="142.48" width="0.05" height="35.69"/><rect class="cls-31" x="36.41" y="142.48" width="3.15" height="35.69"/><rect class="cls-32" x="39.55" y="142.48" width="3.15" height="35.69"/><rect class="cls-33" x="42.7" y="142.48" width="3.15" height="35.69"/><rect class="cls-34" x="45.84" y="142.48" width="3.15" height="35.69"/><rect class="cls-35" x="48.99" y="142.48" width="3.15" height="35.69"/><rect class="cls-36" x="52.13" y="142.48" width="3.15" height="35.69"/><rect class="cls-37" x="55.28" y="142.48" width="3.15" height="35.69"/><rect class="cls-38" x="58.42" y="142.48" width="3.15" height="35.69"/><rect class="cls-39" x="61.57" y="142.48" width="3.15" height="35.69"/><rect class="cls-40" x="64.71" y="142.48" width="3.15" height="35.69"/><rect class="cls-41" x="67.86" y="142.48" width="3.15" height="35.69"/><rect class="cls-42" x="71" y="142.48" width="0.94" height="35.69"/><rect class="cls-43" x="192.39" y="28.79" width="1.28" height="85.82"/><rect class="cls-44" x="193.67" y="28.79" width="3.15" height="85.82"/><rect class="cls-45" x="196.81" y="28.79" width="3.15" height="85.82"/><rect class="cls-46" x="199.96" y="28.79" width="3.15" height="85.82"/><rect class="cls-47" x="203.1" y="28.79" width="3.15" height="85.82"/><rect class="cls-48" x="206.25" y="28.79" width="3.15" height="85.82"/><rect class="cls-49" x="209.39" y="28.79" width="3.15" height="85.82"/><rect class="cls-50" x="212.54" y="28.79" width="3.15" height="85.82"/><rect class="cls-51" x="215.68" y="28.79" width="3.15" height="85.82"/><rect class="cls-52" x="218.83" y="28.79" width="3.15" height="85.82"/><rect class="cls-53" x="221.97" y="28.79" width="3.15" height="85.82"/><rect class="cls-54" x="225.12" y="28.79" width="3.15" height="85.82"/><rect class="cls-55" x="228.26" y="28.79" width="3.15" height="85.82"/><rect class="cls-56" x="231.41" y="28.79" width="3.15" height="85.82"/><rect class="cls-57" x="234.55" y="28.79" width="3.15" height="85.82"/><rect class="cls-4" x="237.7" y="28.79" width="3.15" height="85.82"/><rect class="cls-5" x="240.84" y="28.79" width="3.15" height="85.82"/><rect class="cls-6" x="243.99" y="28.79" width="3.15" height="85.82"/><rect class="cls-7" x="247.13" y="28.79" width="3.15" height="85.82"/><rect class="cls-8" x="250.28" y="28.79" width="3.15" height="85.82"/><rect class="cls-9" x="253.42" y="28.79" width="3.15" height="85.82"/><rect class="cls-10" x="256.57" y="28.79" width="3.15" height="85.82"/><rect class="cls-11" x="259.71" y="28.79" width="3.15" height="85.82"/><rect class="cls-12" x="262.86" y="28.79" width="3.15" height="85.82"/><rect class="cls-13" x="266.01" y="28.79" width="3.15" height="85.82"/><rect class="cls-14" x="269.15" y="28.79" width="3.15" height="85.82"/><rect class="cls-15" x="272.3" y="28.79" width="3.15" height="85.82"/><rect class="cls-16" x="275.44" y="28.79" width="3.15" height="85.82"/><rect class="cls-58" x="278.59" y="28.79" width="3.15" height="85.82"/><rect class="cls-59" x="281.73" y="28.79" width="3.15" height="85.82"/><rect class="cls-60" x="284.88" y="28.79" width="3.15" height="85.82"/><rect class="cls-61" x="288.02" y="28.79" width="3.15" height="85.82"/><rect class="cls-62" x="291.17" y="28.79" width="3.15" height="85.82"/><rect class="cls-63" x="294.31" y="28.79" width="3.15" height="85.82"/><rect class="cls-64" x="297.46" y="28.79" width="3.15" height="85.82"/><rect class="cls-2" x="300.6" y="28.79" width="2.65" height="85.82"/><rect class="cls-65" x="76.55" y="208.07" width="0.74" height="87.48"/><rect class="cls-66" x="77.29" y="208.07" width="3.15" height="87.48"/><rect class="cls-67" x="80.44" y="208.07" width="3.15" height="87.48"/><rect class="cls-68" x="83.58" y="208.07" width="3.15" height="87.48"/><rect class="cls-69" x="86.73" y="208.07" width="3.15" height="87.48"/><rect class="cls-70" x="89.87" y="208.07" width="3.15" height="87.48"/><rect class="cls-71" x="93.02" y="208.07" width="3.15" height="87.48"/><rect class="cls-72" x="96.16" y="208.07" width="3.15" height="87.48"/><rect class="cls-30" x="99.31" y="208.07" width="3.15" height="87.48"/><rect class="cls-17" x="102.45" y="208.07" width="3.15" height="87.48"/><rect class="cls-18" x="105.6" y="208.07" width="3.15" height="87.48"/><rect class="cls-19" x="108.75" y="208.07" width="3.15" height="87.48"/><rect class="cls-20" x="111.89" y="208.07" width="3.15" height="87.48"/><rect class="cls-21" x="115.04" y="208.07" width="3.15" height="87.48"/><rect class="cls-22" x="118.18" y="208.07" width="3.15" height="87.48"/><rect class="cls-23" x="121.33" y="208.07" width="3.15" height="87.48"/><rect class="cls-24" x="124.47" y="208.07" width="3.15" height="87.48"/><rect class="cls-25" x="127.62" y="208.07" width="3.15" height="87.48"/><rect class="cls-26" x="130.76" y="208.07" width="3.15" height="87.48"/><rect class="cls-27" x="133.91" y="208.07" width="3.15" height="87.48"/><rect class="cls-28" x="137.05" y="208.07" width="3.15" height="87.48"/><rect class="cls-29" x="140.2" y="208.07" width="3.15" height="87.48"/><rect class="cls-73" x="143.34" y="208.07" width="3.15" height="87.48"/><rect class="cls-74" x="146.49" y="208.07" width="3.15" height="87.48"/><rect class="cls-75" x="149.63" y="208.07" width="3.15" height="87.48"/><rect class="cls-76" x="152.78" y="208.07" width="3.15" height="87.48"/><rect class="cls-77" x="155.92" y="208.07" width="3.15" height="87.48"/><rect class="cls-78" x="159.07" y="208.07" width="3.15" height="87.48"/><rect class="cls-79" x="162.21" y="208.07" width="3.15" height="87.48"/><rect class="cls-80" x="165.36" y="208.07" width="3.15" height="87.48"/><rect class="cls-81" x="168.5" y="208.07" width="3.15" height="87.48"/><rect class="cls-82" x="171.65" y="208.07" width="3.15" height="87.48"/><rect class="cls-83" x="174.79" y="208.07" width="3.15" height="87.48"/><rect class="cls-84" x="177.94" y="208.07" width="3.15" height="87.48"/><rect class="cls-85" x="181.08" y="208.07" width="3.15" height="87.48"/><rect class="cls-86" x="184.23" y="208.07" width="2.73" height="87.48"/><rect class="cls-38" x="59.32" y="98.25" width="2.25" height="126.3"/><rect class="cls-39" x="61.57" y="98.25" width="3.15" height="126.3"/><rect class="cls-40" x="64.71" y="98.25" width="3.15" height="126.3"/><rect class="cls-41" x="67.86" y="98.25" width="3.15" height="126.3"/><rect class="cls-42" x="71" y="98.25" width="3.15" height="126.3"/><rect class="cls-65" x="74.15" y="98.25" width="3.15" height="126.3"/><rect class="cls-66" x="77.29" y="98.25" width="3.15" height="126.3"/><rect class="cls-67" x="80.44" y="98.25" width="3.15" height="126.3"/><rect class="cls-68" x="83.58" y="98.25" width="3.15" height="126.3"/><rect class="cls-69" x="86.73" y="98.25" width="3.15" height="126.3"/><rect class="cls-70" x="89.87" y="98.25" width="3.15" height="126.3"/><rect class="cls-71" x="93.02" y="98.25" width="3.15" height="126.3"/><rect class="cls-72" x="96.16" y="98.25" width="3.15" height="126.3"/><rect class="cls-30" x="99.31" y="98.25" width="3.15" height="126.3"/><rect class="cls-17" x="102.45" y="98.25" width="3.15" height="126.3"/><rect class="cls-18" x="105.6" y="98.25" width="3.15" height="126.3"/><rect class="cls-19" x="108.75" y="98.25" width="3.15" height="126.3"/><rect class="cls-20" x="111.89" y="98.25" width="1.95" height="126.3"/><rect class="cls-66" x="77.73" y="28.92" width="2.71" height="86.84"/><rect class="cls-67" x="80.44" y="28.92" width="3.15" height="86.84"/><rect class="cls-68" x="83.58" y="28.92" width="3.15" height="86.84"/><rect class="cls-69" x="86.73" y="28.92" width="3.15" height="86.84"/><rect class="cls-70" x="89.87" y="28.92" width="3.15" height="86.84"/><rect class="cls-71" x="93.02" y="28.92" width="3.15" height="86.84"/><rect class="cls-72" x="96.16" y="28.92" width="3.15" height="86.84"/><rect class="cls-30" x="99.31" y="28.92" width="3.15" height="86.84"/><rect class="cls-17" x="102.45" y="28.92" width="3.15" height="86.84"/><rect class="cls-18" x="105.6" y="28.92" width="3.15" height="86.84"/><rect class="cls-19" x="108.75" y="28.92" width="3.15" height="86.84"/><rect class="cls-20" x="111.89" y="28.92" width="3.15" height="86.84"/><rect class="cls-21" x="115.04" y="28.92" width="3.15" height="86.84"/><rect class="cls-22" x="118.18" y="28.92" width="3.15" height="86.84"/><rect class="cls-23" x="121.33" y="28.92" width="3.15" height="86.84"/><rect class="cls-24" x="124.47" y="28.92" width="3.15" height="86.84"/><rect class="cls-25" x="127.62" y="28.92" width="3.15" height="86.84"/><rect class="cls-26" x="130.76" y="28.92" width="3.15" height="86.84"/><rect class="cls-27" x="133.91" y="28.92" width="3.15" height="86.84"/><rect class="cls-28" x="137.05" y="28.92" width="3.15" height="86.84"/><rect class="cls-29" x="140.2" y="28.92" width="3.15" height="86.84"/><rect class="cls-73" x="143.34" y="28.92" width="3.15" height="86.84"/><rect class="cls-74" x="146.49" y="28.92" width="3.15" height="86.84"/><rect class="cls-75" x="149.63" y="28.92" width="3.15" height="86.84"/><rect class="cls-76" x="152.78" y="28.92" width="3.15" height="86.84"/><rect class="cls-77" x="155.92" y="28.92" width="3.15" height="86.84"/><rect class="cls-78" x="159.07" y="28.92" width="3.15" height="86.84"/><rect class="cls-79" x="162.21" y="28.92" width="3.15" height="86.84"/><rect class="cls-80" x="165.36" y="28.92" width="3.15" height="86.84"/><rect class="cls-81" x="168.5" y="28.92" width="3.15" height="86.84"/><rect class="cls-82" x="171.65" y="28.92" width="3.15" height="86.84"/><rect class="cls-83" x="174.79" y="28.92" width="3.15" height="86.84"/><rect class="cls-84" x="177.94" y="28.92" width="3.15" height="86.84"/><rect class="cls-85" x="181.08" y="28.92" width="3.15" height="86.84"/><rect class="cls-86" x="184.23" y="28.92" width="3.15" height="86.84"/><rect class="cls-87" x="187.38" y="28.92" width="1.45" height="86.84"/><rect class="cls-43" x="192.49" y="208.49" width="1.18" height="87.08"/><rect class="cls-44" x="193.67" y="208.49" width="3.15" height="87.08"/><rect class="cls-45" x="196.81" y="208.49" width="3.15" height="87.08"/><rect class="cls-46" x="199.96" y="208.49" width="3.15" height="87.08"/><rect class="cls-47" x="203.1" y="208.49" width="3.15" height="87.08"/><rect class="cls-48" x="206.25" y="208.49" width="3.15" height="87.08"/><rect class="cls-49" x="209.39" y="208.49" width="3.15" height="87.08"/><rect class="cls-50" x="212.54" y="208.49" width="3.15" height="87.08"/><rect class="cls-51" x="215.68" y="208.49" width="3.15" height="87.08"/><rect class="cls-52" x="218.83" y="208.49" width="3.15" height="87.08"/><rect class="cls-53" x="221.97" y="208.49" width="3.15" height="87.08"/><rect class="cls-54" x="225.12" y="208.49" width="3.15" height="87.08"/><rect class="cls-55" x="228.26" y="208.49" width="3.15" height="87.08"/><rect class="cls-56" x="231.41" y="208.49" width="3.15" height="87.08"/><rect class="cls-57" x="234.55" y="208.49" width="3.15" height="87.08"/><rect class="cls-4" x="237.7" y="208.49" width="3.15" height="87.08"/><rect class="cls-5" x="240.84" y="208.49" width="3.15" height="87.08"/><rect class="cls-6" x="243.99" y="208.49" width="3.15" height="87.08"/><rect class="cls-7" x="247.13" y="208.49" width="3.15" height="87.08"/><rect class="cls-8" x="250.28" y="208.49" width="3.15" height="87.08"/><rect class="cls-9" x="253.42" y="208.49" width="3.15" height="87.08"/><rect class="cls-10" x="256.57" y="208.49" width="3.15" height="87.08"/><rect class="cls-11" x="259.71" y="208.49" width="3.15" height="87.08"/><rect class="cls-12" x="262.86" y="208.49" width="3.15" height="87.08"/><rect class="cls-13" x="266.01" y="208.49" width="3.15" height="87.08"/><rect class="cls-14" x="269.15" y="208.49" width="3.15" height="87.08"/><rect class="cls-15" x="272.3" y="208.49" width="3.15" height="87.08"/><rect class="cls-16" x="275.44" y="208.49" width="3.15" height="87.08"/><rect class="cls-58" x="278.59" y="208.49" width="3.15" height="87.08"/><rect class="cls-59" x="281.73" y="208.49" width="3.15" height="87.08"/><rect class="cls-60" x="284.88" y="208.49" width="3.15" height="87.08"/><rect class="cls-61" x="288.02" y="208.49" width="3.15" height="87.08"/><rect class="cls-62" x="291.17" y="208.49" width="3.15" height="87.08"/><rect class="cls-63" x="294.31" y="208.49" width="3.15" height="87.08"/><rect class="cls-64" x="297.46" y="208.49" width="3.15" height="87.08"/><rect class="cls-2" x="300.6" y="208.49" width="3.15" height="87.08"/></g></svg>