<svg id="Layer_1" data-name="Layer 1" xmlns="http://www.w3.org/2000/svg" viewBox="0 0 62.49 60.08"><defs><style>.cls-1{fill:#08f29b;}</style></defs><title>Mail</title><path class="cls-1" d="M17,44.64H44.31a7.93,7.93,0,0,0,7.94-7.94V19.22a7.93,7.93,0,0,0-7.94-7.94H17A7.93,7.93,0,0,0,9,19.22V36.69A7.93,7.93,0,0,0,17,44.64Zm32.09-7.94a4.75,4.75,0,0,1-4.77,4.77H17a4.75,4.75,0,0,1-4.77-4.77V19.22A5.17,5.17,0,0,1,13,16.57L27.47,29.28a4.77,4.77,0,0,0,3.18,1.22,4.59,4.59,0,0,0,3.12-1.16L48.23,16.62A4.88,4.88,0,0,1,49,19.27V36.69ZM44.31,14.45a4,4,0,0,1,1.38.21L31.7,26.9a1.61,1.61,0,0,1-2.12,0l-14-12.23A5.76,5.76,0,0,1,17,14.45Z"/></svg>