<?xml version="1.0" encoding="UTF-8"?>
<svg width="185px" height="185px" viewBox="0 0 185 185" version="1.1" xmlns="http://www.w3.org/2000/svg" xmlns:xlink="http://www.w3.org/1999/xlink">
    <!-- Generator: Sketch 47.1 (45422) - http://www.bohemiancoding.com/sketch -->
    <title>Page 1</title>
    <desc>Created with Sketch.</desc>
    <defs>
        <polygon id="path-1" points="0 185 0 0.2 184.8 0.2 184.8 185"></polygon>
    </defs>
    <g id="Page-1" stroke="none" stroke-width="1" fill="none" fill-rule="evenodd">
        <g id="GoTo_EnquiryPage" transform="translate(-1107.000000, -330.000000)">
            <g id="Page-1" transform="translate(1107.000000, 329.000000)">
                <g id="Group-3" transform="translate(0.000000, 0.800000)">
                    <mask id="mask-2" fill="white">
                        <use xlink:href="#path-1"></use>
                    </mask>
                    <g id="Clip-2"></g>
                    <path d="M184.8005,92.6 C184.8005,143.631 143.4315,185 92.4005,185 C41.3685,185 -0.0005,143.631 -0.0005,92.6 C-0.0005,41.569 41.3685,0.2 92.4005,0.2 C143.4315,0.2 184.8005,41.569 184.8005,92.6" id="Fill-1" fill="#08F29B" mask="url(#mask-2)"></path>
                </g>
                <path d="M66.9402,120.0768 C67.4822,120.1698 68.0292,120.1688 68.5712,120.0768 L70.2542,132.8178 L67.7522,135.4648 L65.2562,132.8178 L66.9402,120.0768 Z M67.6672,113.9378 L69.2712,115.2248 L69.2712,115.2578 C69.2702,115.8198 68.9752,116.3238 68.5042,116.5978 C68.0342,116.8718 67.4702,116.8718 67.0002,116.5978 C66.5292,116.3238 66.2412,115.8198 66.2412,115.2578 L66.2412,115.0858 L67.6672,113.9378 Z M55.2102,110.5708 L60.5502,119.6018 L63.3692,117.3638 C63.4902,117.6188 63.6352,117.8528 63.7982,118.0828 L61.9692,131.9198 L53.5862,131.9198 L53.5862,126.9298 L50.2062,126.9298 L50.2062,131.9198 L44.9312,131.9198 L44.9312,120.7238 C44.9312,118.1328 46.3072,115.7478 48.5422,114.4658 L48.5482,114.4658 L55.2102,110.5708 Z M80.2032,110.4188 L87.1612,114.5778 L87.1732,114.5778 C89.2822,115.7878 90.5812,118.0348 90.5812,120.4798 L90.5812,131.9128 L85.6622,131.9128 L85.6622,126.9298 L82.2822,126.9298 L82.2822,131.9128 L73.5422,131.9128 L71.7132,118.0898 C71.8532,117.8908 71.9872,117.6928 72.0962,117.4758 L74.7702,119.6078 L80.2032,110.4188 Z M115.2442,108.9598 C116.3512,111.2838 117.9872,113.3528 119.6932,115.1648 L119.7582,115.2378 L119.9502,115.3968 L122.1552,117.5488 L122.1552,131.8998 L111.1972,131.8998 L111.1972,126.2168 L107.8172,126.2168 L107.8172,131.8998 L101.3872,131.8998 L101.3872,121.1268 C101.3872,118.5888 102.7382,116.2508 104.9322,114.9938 L104.9382,114.9938 L115.2442,108.9598 Z M132.6312,108.9528 L142.9502,115.1128 L142.9622,115.1128 C145.0312,116.2978 146.3032,118.5018 146.3032,120.8958 L146.3032,131.8998 L140.0982,131.8998 L140.0982,126.2168 L136.7182,126.2168 L136.7182,131.8998 L125.5352,131.8998 L125.5352,123.3778 L125.5612,123.3778 L125.5612,117.5818 L127.9052,115.3838 C130.6012,113.0788 131.7142,110.7488 132.6312,108.9528 L132.6312,108.9528 Z M59.6202,107.9828 L64.4982,112.1488 L63.9042,112.6308 L61.4882,114.5448 L58.1272,108.8608 L59.6202,107.9828 Z M75.8722,107.8308 L77.3042,108.6828 L73.8382,114.5448 L72.6512,113.6008 L72.6512,113.5678 L72.6112,113.5678 L71.6872,112.8348 L70.8222,112.1418 L75.8722,107.8308 Z M129.9052,103.0318 L129.9052,106.8868 C128.8312,108.8678 127.9642,110.8858 125.7072,112.8148 L125.6342,112.8808 L125.5482,112.9608 L123.8842,114.5118 L122.2282,112.8948 L122.1282,112.8148 C120.3972,110.9688 118.8812,108.9198 118.0362,106.8868 L118.0362,103.1708 C119.7722,104.1248 121.7312,104.7148 123.8452,104.7148 C126.0612,104.7148 128.1122,104.0738 129.9052,103.0318 L129.9052,103.0318 Z M73.9312,102.1998 L73.9312,105.0448 L67.6602,110.3988 L61.8312,105.4218 L61.8312,102.3388 C63.5842,103.3598 65.5862,103.9888 67.7522,103.9888 C70.0232,103.9888 72.1222,103.3138 73.9312,102.1998 L73.9312,102.1998 Z M119.2702,86.0588 C120.1252,86.7758 120.8612,87.7858 121.8252,88.0528 C123.5142,88.5208 125.1892,88.4668 126.7042,88.4028 C128.2182,88.3388 129.5882,88.2698 130.5592,88.4498 C131.5292,88.6278 132.0212,88.8778 132.5002,89.7098 C132.5622,89.8218 132.6372,89.9258 132.7242,90.0198 L132.7242,92.3048 C132.7242,97.3418 128.7822,101.3288 123.8452,101.3288 C118.9082,101.3288 114.9602,97.3418 114.9602,92.3048 L114.9602,89.5918 C115.3022,89.4408 115.5872,89.2448 115.9042,89.0428 C116.5292,88.6438 117.1522,88.1418 117.7462,87.6108 C118.3082,87.1068 118.8252,86.5788 119.2702,86.0588 L119.2702,86.0588 Z M63.1112,85.0498 C63.9802,85.7838 64.7302,86.8098 65.7122,87.0828 C67.4222,87.5568 69.1202,87.4968 70.6572,87.4328 C72.1942,87.3688 73.5892,87.3028 74.5782,87.4858 C75.4472,87.6458 75.9262,87.9278 76.3672,88.5548 L76.3672,91.8228 C76.3672,96.7318 72.5352,100.6088 67.7522,100.6088 C62.9702,100.6088 59.1442,96.7318 59.1442,91.8228 L59.1442,88.4028 C59.3222,88.2978 59.5042,88.2018 59.6852,88.0858 C60.3192,87.6808 60.9522,87.1808 61.5532,86.6398 C62.1282,86.1258 62.6582,85.5798 63.1112,85.0498 L63.1112,85.0498 Z M100.5942,85.0228 C99.7082,85.0858 99.0212,85.8248 99.0232,86.7128 C99.0272,87.6438 99.7832,88.3958 100.7132,88.3958 C101.6442,88.3958 102.4002,87.6438 102.4042,86.7128 C102.4042,85.7798 101.6472,85.0228 100.7132,85.0228 C100.6732,85.0218 100.6342,85.0218 100.5942,85.0228 L100.5942,85.0228 Z M93.8352,85.0228 C92.9482,85.0858 92.2612,85.8248 92.2632,86.7128 C92.2672,87.6438 93.0232,88.3958 93.9542,88.3958 C94.8842,88.3958 95.6402,87.6438 95.6432,86.7128 C95.6432,85.7798 94.8872,85.0228 93.9542,85.0228 C93.9142,85.0218 93.8752,85.0218 93.8352,85.0228 L93.8352,85.0228 Z M88.8832,81.6428 L105.7842,81.6428 L105.7842,91.9678 L102.4042,91.9678 C101.4702,91.9678 100.7132,92.7248 100.7132,93.6578 L100.7132,93.6638 L100.7202,95.9088 L97.5582,92.5028 C97.2372,92.1598 96.7872,91.9658 96.3172,91.9678 L88.8832,91.9678 L88.8832,81.6428 Z M87.1942,78.2628 C86.2602,78.2638 85.5032,79.0198 85.5032,79.9528 L85.5032,93.6578 C85.5032,94.5908 86.2602,95.3478 87.1942,95.3478 L95.5852,95.3478 L101.1952,101.3818 C101.8332,102.0628 102.9032,102.0988 103.5852,101.4608 C103.9262,101.1408 104.1202,100.6948 104.1202,100.2258 L104.1002,95.3478 L107.4732,95.3478 C108.4072,95.3478 109.1642,94.5908 109.1642,93.6578 L109.1642,79.9528 C109.1642,79.0198 108.4072,78.2638 107.4732,78.2628 L87.1942,78.2628 Z M129.1532,72.9358 C130.0592,73.0708 130.8622,73.2538 131.3782,73.8528 C132.0252,74.6088 132.5072,75.8568 132.7242,77.4518 L132.7242,83.4118 L132.7242,84.9898 L132.7242,85.0358 L132.7242,85.1018 C132.7242,85.1048 132.7222,85.1408 132.7242,85.1678 L132.7242,85.6438 C132.2122,85.4118 131.6912,85.2238 131.1722,85.1288 C129.5862,84.8348 128.0192,84.9618 126.5582,85.0228 C125.0982,85.0838 123.7582,85.0828 122.7292,84.7988 C121.7002,84.5148 120.9672,84.0638 120.2802,82.8708 C119.9612,82.3208 119.3582,81.9958 118.7222,82.0328 C117.9922,82.0698 117.3682,82.5738 117.1772,83.2808 C117.2632,82.9588 117.1022,83.4058 116.7752,83.7948 C116.4482,84.1838 115.9812,84.6598 115.4942,85.0958 C115.3122,85.2588 115.1492,85.3568 114.9662,85.5048 L114.9662,85.1018 L114.9602,84.9038 L114.9602,79.7478 C114.9602,77.3478 116.8102,75.4908 119.1452,75.4908 L125.0602,75.4908 L125.1132,75.4908 C126.2142,75.4158 127.3332,75.0768 128.3072,74.3878 C128.7382,74.0838 128.8262,73.4118 129.1532,72.9418 L129.1532,72.9358 Z M72.9482,72.9358 C73.8022,73.0678 74.5632,73.2398 75.0532,73.8138 C75.6812,74.5478 76.1582,75.7718 76.3672,77.3388 L76.3672,84.4888 C75.9792,84.3428 75.5812,84.2298 75.1922,84.1588 C73.5862,83.8608 71.9952,83.9948 70.5112,84.0588 C69.0292,84.1198 67.6672,84.1118 66.6172,83.8218 C65.5672,83.5308 64.8152,83.0728 64.1152,81.8538 C63.7972,81.3038 63.1992,80.9768 62.5632,81.0098 C61.8292,81.0448 61.2012,81.5528 61.0122,82.2638 C61.0962,81.9498 60.9292,82.4018 60.5962,82.7988 C60.2632,83.1948 59.7912,83.6748 59.2952,84.1188 C59.2432,84.1658 59.1972,84.1908 59.1442,84.2378 L59.1442,79.5508 C59.1442,77.2198 60.9302,75.4248 63.1772,75.4248 L68.9412,75.4248 L68.9942,75.4248 C70.0762,75.3538 71.1712,75.0218 72.1292,74.3418 C72.5452,74.0478 72.6292,73.3898 72.9482,72.9358 L72.9482,72.9358 Z M126.9482,69.3048 L126.8492,70.8758 C126.8302,71.1698 126.7142,71.3598 126.3542,71.6158 C125.9932,71.8688 125.3982,72.0698 124.8882,72.1038 L119.1452,72.1038 C114.9722,72.1038 111.5802,75.5508 111.5802,79.7418 L111.5802,85.0958 L111.5802,85.1288 C111.5792,85.1618 111.5802,85.1718 111.5802,85.1748 L111.5802,92.3108 C111.5802,95.4308 112.7642,98.2598 114.6562,100.4438 L114.6562,105.3888 L103.2352,112.0698 C100.0002,113.9298 98.0062,117.3888 98.0062,121.1268 L98.0062,135.2798 L149.6832,135.2798 L149.6832,120.8958 C149.6832,117.3088 147.7672,113.9858 144.6672,112.1948 L144.6532,112.1948 L133.2852,105.4088 L133.2852,100.1338 C135.0222,97.9918 136.1042,95.2878 136.1042,92.3108 L136.1042,85.1088 C136.1052,85.0748 136.1042,85.0458 136.1042,85.0428 L136.1042,77.1938 L136.0902,77.0808 C135.8242,75.0258 135.1962,73.1328 133.9392,71.6678 C132.6822,70.2038 130.7512,69.3078 128.5262,69.3178 L128.5262,69.3048 L126.9482,69.3048 Z M70.7362,69.3048 L70.6372,70.8758 C70.6212,71.1528 70.5112,71.3258 70.1692,71.5688 C69.8262,71.8128 69.2562,72.0058 68.7692,72.0378 L63.1772,72.0378 C59.0862,72.0378 55.7642,75.4288 55.7642,79.5438 L55.7642,84.7128 C55.7642,84.8578 55.7702,84.9448 55.7702,84.7788 C55.7702,84.7178 55.7642,84.6618 55.7642,84.8448 L55.7642,87.0558 C55.7522,87.1678 55.7522,87.2808 55.7642,87.3928 L55.7642,91.8228 C55.7642,94.6978 56.7972,97.3128 58.4512,99.4008 L58.4512,104.7418 L46.8452,111.5408 C43.5682,113.4278 41.5512,116.9348 41.5512,120.7238 L41.5512,135.2998 L62.9532,135.2998 L67.7522,140.3898 L72.5582,135.2928 L93.9612,135.2928 L93.9612,120.4798 C93.9612,116.8418 92.0222,113.4748 88.8772,111.6598 L88.8642,111.6598 L77.3112,104.7548 L77.3112,99.0978 C78.8222,97.0608 79.7472,94.5558 79.7472,91.8228 L79.7472,84.8448 C79.7472,84.7258 79.7412,84.7348 79.7412,84.7918 C79.7412,84.8388 79.7472,84.8888 79.7472,84.7258 L79.7472,77.0418 L79.7342,76.9358 C79.4732,74.9228 78.8592,73.0618 77.6282,71.6218 C76.3972,70.1808 74.4942,69.2938 72.3142,69.3048 L70.7362,69.3048 Z M93.8352,57.9838 C92.9482,58.0458 92.2612,58.7848 92.2632,59.6738 C92.2672,60.6038 93.0232,61.3568 93.9542,61.3568 C94.8842,61.3568 95.6402,60.6038 95.6432,59.6738 C95.6432,58.7398 94.8872,57.9838 93.9542,57.9838 C93.9142,57.9818 93.8752,57.9818 93.8352,57.9838 L93.8352,57.9838 Z M87.0752,57.9838 C86.1882,58.0458 85.5022,58.7848 85.5032,59.6738 C85.5072,60.6038 86.2632,61.3568 87.1942,61.3568 C88.1252,61.3568 88.8802,60.6038 88.8832,59.6738 C88.8832,58.7398 88.1272,57.9838 87.1942,57.9838 C87.1542,57.9818 87.1152,57.9818 87.0752,57.9838 L87.0752,57.9838 Z M82.1302,54.6028 L99.0232,54.6028 L99.0232,64.9278 L91.5902,64.9278 C91.1202,64.9258 90.6702,65.1198 90.3492,65.4628 L87.1872,68.8688 L87.1942,66.6248 C87.1972,65.6908 86.4432,64.9318 85.5102,64.9278 L85.5032,64.9278 L82.1242,64.9278 L82.1302,54.6028 Z M80.4402,51.2228 C79.5072,51.2228 78.7512,51.9798 78.7512,52.9128 L78.7442,66.6178 C78.7442,67.5518 79.5012,68.3078 80.4342,68.3078 L83.8072,68.3078 L83.7882,73.1868 C83.7832,74.1198 84.5362,74.8798 85.4692,74.8848 C85.9442,74.8868 86.3972,74.6898 86.7182,74.3418 L92.3232,68.3078 L100.7132,68.3078 C101.6472,68.3078 102.4032,67.5518 102.4042,66.6178 L102.4042,52.9128 C102.4032,51.9798 101.6472,51.2228 100.7132,51.2228 L80.4402,51.2228 Z" id="Fill-4" fill="#F0F0F0"></path>
                <path d="M63.7234,117.4171 C64.2654,117.5101 64.8124,117.5091 65.3544,117.4171 L67.0364,130.1581 L64.5354,132.8051 L62.0394,130.1581 L63.7234,117.4171 Z M64.4494,111.2781 L66.0534,112.5651 L66.0534,112.5981 C66.0534,113.1601 65.7584,113.6641 65.2874,113.9381 C64.8174,114.2121 64.2534,114.2121 63.7834,113.9381 C63.3124,113.6651 63.0234,113.1601 63.0234,112.5981 L63.0234,112.4261 L64.4494,111.2781 Z M51.9934,107.9111 L57.3324,116.9421 L60.1524,114.7041 C60.2724,114.9591 60.4184,115.1931 60.5804,115.4231 L58.7524,129.2601 L50.3694,129.2601 L50.3694,124.2701 L46.9884,124.2701 L46.9884,129.2601 L41.7134,129.2601 L41.7134,118.0641 C41.7134,115.4731 43.0894,113.0881 45.3254,111.8061 L45.3314,111.8061 L51.9934,107.9111 Z M76.9864,107.7591 L83.9444,111.9181 L83.9564,111.9181 C86.0644,113.1281 87.3634,115.3751 87.3634,117.8201 L87.3634,129.2531 L82.4454,129.2531 L82.4454,124.2701 L79.0654,124.2701 L79.0654,129.2531 L70.3254,129.2531 L68.4954,115.4301 C68.6364,115.2311 68.7694,115.0331 68.8784,114.8161 L71.5524,116.9481 L76.9864,107.7591 Z M112.0264,106.3001 C113.1344,108.6241 114.7704,110.6931 116.4754,112.5051 L116.5414,112.5781 L116.7334,112.7371 L118.9384,114.8891 L118.9384,129.2401 L107.9794,129.2401 L107.9794,123.5571 L104.5994,123.5571 L104.5994,129.2401 L98.1694,129.2401 L98.1694,118.4671 C98.1694,115.9291 99.5214,113.5911 101.7144,112.3341 L101.7214,112.3341 L112.0264,106.3001 Z M129.4144,106.2931 L139.7334,112.4531 L139.7454,112.4531 C141.8144,113.6381 143.0864,115.8421 143.0864,118.2361 L143.0864,129.2401 L136.8804,129.2401 L136.8804,123.5571 L133.5004,123.5571 L133.5004,129.2401 L122.3184,129.2401 L122.3184,120.7181 L122.3444,120.7181 L122.3444,114.9221 L124.6884,112.7241 C127.3834,110.4191 128.4974,108.0891 129.4144,106.2931 L129.4144,106.2931 Z M56.4024,105.3231 L61.2814,109.4891 L60.6864,109.9711 L58.2704,111.8851 L54.9104,106.2011 L56.4024,105.3231 Z M72.6554,105.1711 L74.0874,106.0231 L70.6214,111.8851 L69.4334,110.9411 L69.4334,110.9081 L69.3944,110.9081 L68.4694,110.1751 L67.6054,109.4821 L72.6554,105.1711 Z M126.6884,100.3721 L126.6884,104.2281 C125.6144,106.2081 124.7474,108.2261 122.4904,110.1551 L122.4164,110.2221 L122.3304,110.3011 L120.6674,111.8521 L119.0104,110.2351 L118.9114,110.1551 C117.1794,108.3091 115.6644,106.2601 114.8194,104.2281 L114.8194,100.5111 C116.5544,101.4651 118.5144,102.0561 120.6274,102.0561 C122.8444,102.0561 124.8954,101.4141 126.6884,100.3721 L126.6884,100.3721 Z M70.7144,99.5401 L70.7144,102.3861 L64.4434,107.7391 L58.6144,102.7621 L58.6144,99.6791 C60.3674,100.7001 62.3684,101.3291 64.5354,101.3291 C66.8054,101.3291 68.9054,100.6541 70.7144,99.5401 L70.7144,99.5401 Z M116.0534,83.3991 C116.9084,84.1161 117.6434,85.1261 118.6084,85.3931 C120.2974,85.8611 121.9714,85.8071 123.4864,85.7431 C125.0014,85.6791 126.3714,85.6101 127.3414,85.7901 C128.3114,85.9691 128.8034,86.2181 129.2834,87.0501 C129.3454,87.1621 129.4204,87.2661 129.5064,87.3601 L129.5064,89.6451 C129.5064,94.6821 125.5654,98.6691 120.6274,98.6691 C115.6914,98.6691 111.7434,94.6821 111.7434,89.6451 L111.7434,86.9321 C112.0844,86.7811 112.3704,86.5851 112.6864,86.3831 C113.3124,85.9841 113.9344,85.4821 114.5284,84.9511 C115.0904,84.4471 115.6074,83.9191 116.0534,83.3991 L116.0534,83.3991 Z M59.8944,82.3901 C60.7624,83.1241 61.5124,84.1501 62.4954,84.4231 C64.2054,84.8971 65.9024,84.8371 67.4404,84.7731 C68.9774,84.7091 70.3714,84.6431 71.3614,84.8261 C72.2294,84.9861 72.7094,85.2681 73.1504,85.8951 L73.1504,89.1631 C73.1504,94.0721 69.3174,97.9491 64.5354,97.9491 C59.7524,97.9491 55.9264,94.0721 55.9264,89.1631 L55.9264,85.7431 C56.1044,85.6381 56.2874,85.5421 56.4684,85.4261 C57.1024,85.0211 57.7344,84.5211 58.3364,83.9801 C58.9114,83.4661 59.4414,82.9201 59.8944,82.3901 L59.8944,82.3901 Z M97.3774,82.3631 C96.4914,82.4261 95.8044,83.1651 95.8064,84.0531 C95.8104,84.9841 96.5654,85.7361 97.4964,85.7361 C98.4274,85.7361 99.1824,84.9841 99.1864,84.0531 C99.1864,83.1201 98.4294,82.3631 97.4964,82.3631 C97.4564,82.3621 97.4164,82.3621 97.3774,82.3631 L97.3774,82.3631 Z M90.6184,82.3631 C89.7314,82.4261 89.0444,83.1651 89.0464,84.0531 C89.0504,84.9841 89.8054,85.7361 90.7364,85.7361 C91.6674,85.7361 92.4224,84.9841 92.4264,84.0531 C92.4264,83.1201 91.6694,82.3631 90.7374,82.3631 L90.7364,82.3631 C90.6974,82.3621 90.6574,82.3621 90.6184,82.3631 L90.6184,82.3631 Z M85.6664,78.9831 L102.5664,78.9831 L102.5664,89.3081 L99.1864,89.3081 C98.2524,89.3081 97.4964,90.0651 97.4964,90.9981 L97.4964,91.0041 L97.5024,93.2491 L94.3404,89.8431 C94.0194,89.5001 93.5704,89.3061 93.1004,89.3081 L85.6664,89.3081 L85.6664,78.9831 Z M83.9764,75.6041 C83.0434,75.6041 82.2864,76.3601 82.2864,77.2931 L82.2864,90.9981 C82.2864,91.9311 83.0434,92.6881 83.9764,92.6881 L92.3674,92.6881 L97.9784,98.7221 C98.6164,99.4031 99.6854,99.4391 100.3674,98.8011 C100.7084,98.4811 100.9034,98.0351 100.9034,97.5661 L100.8824,92.6881 L104.2564,92.6881 C105.1904,92.6881 105.9464,91.9311 105.9464,90.9981 L105.9464,77.2931 C105.9464,76.3601 105.1904,75.6041 104.2564,75.6041 L83.9764,75.6041 Z M125.9354,70.2761 C126.8424,70.4111 127.6454,70.5941 128.1604,71.1931 C128.8084,71.9491 129.2894,73.1971 129.5064,74.7921 L129.5064,80.7521 L129.5064,82.3301 L129.5064,82.3761 L129.5064,82.4421 C129.5064,82.4451 129.5054,82.4811 129.5064,82.5081 L129.5064,82.9841 C128.9944,82.7521 128.4744,82.5641 127.9554,82.4691 C126.3694,82.1751 124.8014,82.3021 123.3414,82.3631 C121.8804,82.4241 120.5414,82.4231 119.5124,82.1391 C118.4834,81.8551 117.7494,81.4041 117.0634,80.2111 C116.7434,79.6611 116.1414,79.3361 115.5054,79.3731 C114.7744,79.4111 114.1514,79.9141 113.9604,80.6211 C114.0454,80.2991 113.8854,80.7461 113.5584,81.1351 C113.2304,81.5241 112.7644,82.0001 112.2774,82.4361 C112.0944,82.5991 111.9324,82.6971 111.7484,82.8451 L111.7484,82.4421 L111.7434,82.2441 L111.7434,77.0881 C111.7434,74.6881 113.5934,72.8311 115.9274,72.8311 L121.8424,72.8311 L121.8954,72.8311 C122.9974,72.7561 124.1164,72.4181 125.0904,71.7281 C125.5214,71.4241 125.6094,70.7521 125.9354,70.2831 L125.9354,70.2761 Z M69.7304,70.2761 C70.5854,70.4081 71.3454,70.5801 71.8364,71.1541 C72.4634,71.8881 72.9414,73.1121 73.1504,74.6791 L73.1504,81.8291 C72.7624,81.6831 72.3644,81.5701 71.9754,81.4991 C70.3684,81.2011 68.7784,81.3351 67.2944,81.3991 C65.8114,81.4601 64.4504,81.4531 63.4004,81.1621 C62.3504,80.8711 61.5984,80.4131 60.8984,79.1941 C60.5804,78.6441 59.9814,78.3171 59.3464,78.3501 C58.6114,78.3851 57.9844,78.8931 57.7944,79.6041 C57.8794,79.2901 57.7124,79.7421 57.3794,80.1391 C57.0454,80.5351 56.5744,81.0151 56.0784,81.4591 C56.0264,81.5061 55.9804,81.5311 55.9264,81.5781 L55.9264,76.8911 C55.9264,74.5601 57.7134,72.7651 59.9604,72.7651 L65.7234,72.7651 L65.7764,72.7651 C66.8594,72.6941 67.9544,72.3621 68.9114,71.6821 C69.3274,71.3881 69.4124,70.7301 69.7304,70.2761 L69.7304,70.2761 Z M123.7314,66.6451 L123.6314,68.2161 C123.6124,68.5101 123.4964,68.7001 123.1364,68.9561 C122.7764,69.2091 122.1804,69.4101 121.6704,69.4441 L115.9274,69.4441 C111.7554,69.4441 108.3624,72.8911 108.3624,77.0821 L108.3624,82.4361 L108.3624,82.4691 L108.3624,82.5151 L108.3624,89.6511 C108.3624,92.7711 109.5474,95.6001 111.4394,97.7841 L111.4394,102.7291 L100.0184,109.4101 C96.7824,111.2701 94.7894,114.7291 94.7894,118.4671 L94.7894,132.6201 L146.4664,132.6201 L146.4664,118.2361 C146.4664,114.6491 144.5494,111.3261 141.4494,109.5351 L141.4364,109.5351 L130.0684,102.7491 L130.0684,97.4741 C131.8044,95.3321 132.8874,92.6281 132.8874,89.6511 L132.8874,82.4491 C132.8884,82.4151 132.8874,82.3861 132.8874,82.3831 L132.8874,74.5341 L132.8734,74.4211 C132.6064,72.3661 131.9784,70.4731 130.7214,69.0081 C129.4644,67.5441 127.5334,66.6481 125.3084,66.6581 L125.3084,66.6451 L123.7314,66.6451 Z M67.5194,66.6451 L67.4194,68.2161 C67.4034,68.4931 67.2944,68.6661 66.9514,68.9091 C66.6084,69.1531 66.0394,69.3461 65.5514,69.3781 L59.9604,69.3781 C55.8694,69.3781 52.5464,72.7691 52.5464,76.8841 L52.5464,82.0531 C52.5464,82.1981 52.5534,82.2851 52.5534,82.1191 C52.5534,82.0581 52.5464,82.0021 52.5464,82.1851 L52.5464,84.3961 C52.5354,84.5081 52.5354,84.6211 52.5464,84.7331 L52.5464,89.1631 C52.5464,92.0381 53.5794,94.6531 55.2344,96.7411 L55.2344,102.0821 L43.6284,108.8811 C40.3514,110.7681 38.3334,114.2751 38.3334,118.0641 L38.3334,132.6401 L59.7364,132.6401 L64.5354,137.7301 L69.3414,132.6331 L90.7434,132.6331 L90.7434,117.8201 C90.7434,114.1821 88.8044,110.8151 85.6604,109.0001 L85.6474,109.0001 L74.0944,102.0951 L74.0944,96.4381 C75.6044,94.4011 76.5304,91.8961 76.5304,89.1631 L76.5304,82.1851 C76.5304,82.0671 76.5234,82.0751 76.5234,82.1321 C76.5244,82.1801 76.5304,82.2291 76.5304,82.0661 L76.5304,74.3821 L76.5174,74.2761 C76.2554,72.2631 75.6424,70.4021 74.4114,68.9621 C73.1794,67.5211 71.2774,66.6341 69.0964,66.6451 L67.5194,66.6451 Z M90.6184,55.3241 C89.7314,55.3861 89.0444,56.1251 89.0464,57.0141 C89.0504,57.9441 89.8054,58.6971 90.7364,58.6971 C91.6674,58.6971 92.4224,57.9441 92.4264,57.0141 C92.4264,56.0801 91.6694,55.3241 90.7374,55.3241 L90.7364,55.3241 C90.6974,55.3221 90.6574,55.3221 90.6184,55.3241 L90.6184,55.3241 Z M83.8584,55.3241 C82.9714,55.3861 82.2844,56.1251 82.2864,57.0141 C82.2894,57.9441 83.0454,58.6971 83.9764,58.6971 C84.9074,58.6971 85.6624,57.9441 85.6664,57.0141 C85.6664,56.0801 84.9104,55.3241 83.9764,55.3241 C83.9374,55.3221 83.8974,55.3221 83.8584,55.3241 L83.8584,55.3241 Z M78.9124,51.9431 L95.8064,51.9431 L95.8064,62.2681 L88.3724,62.2681 C87.9034,62.2661 87.4534,62.4601 87.1324,62.8031 L83.9704,66.2091 L83.9764,63.9651 C83.9804,63.0311 83.2264,62.2721 82.2924,62.2681 L82.2864,62.2681 L78.9074,62.2681 L78.9124,51.9431 Z M77.2234,48.5631 C76.2894,48.5631 75.5334,49.3201 75.5334,50.2531 L75.5274,63.9591 C75.5274,64.8921 76.2834,65.6481 77.2164,65.6481 L80.5894,65.6481 L80.5704,70.5271 C80.5664,71.4601 81.3194,72.2201 82.2524,72.2251 C82.7264,72.2271 83.1794,72.0301 83.5014,71.6821 L89.1064,65.6481 L97.4964,65.6481 C98.4294,65.6481 99.1864,64.8921 99.1864,63.9591 L99.1864,50.2531 C99.1864,49.3201 98.4294,48.5631 97.4964,48.5631 L77.2234,48.5631 Z" id="Fill-6" fill="#2AC1F0"></path>
            </g>
        </g>
    </g>
</svg>