<?xml version="1.0" encoding="UTF-8"?>
<svg width="185px" height="185px" viewBox="0 0 185 185" version="1.1" xmlns="http://www.w3.org/2000/svg" xmlns:xlink="http://www.w3.org/1999/xlink">
    <!-- Generator: Sketch 47.1 (45422) - http://www.bohemiancoding.com/sketch -->
    <title>Page 1</title>
    <desc>Created with Sketch.</desc>
    <defs>
        <polygon id="path-1" points="0 185 0 0.2 184.8 0.2 184.8 185"></polygon>
    </defs>
    <g id="Page-1" stroke="none" stroke-width="1" fill="none" fill-rule="evenodd">
        <g id="GoTo_EnquiryPage" transform="translate(-138.000000, -330.000000)">
            <g id="Page-1" transform="translate(138.000000, 329.000000)">
                <g id="Group-3" transform="translate(0.000000, 0.800000)">
                    <mask id="mask-2" fill="white">
                        <use xlink:href="#path-1"></use>
                    </mask>
                    <g id="Clip-2"></g>
                    <path d="M184.8006,92.6 C184.8006,143.631 143.4316,185 92.4006,185 C41.3686,185 -0.0004,143.631 -0.0004,92.6 C-0.0004,41.569 41.3686,0.2 92.4006,0.2 C143.4316,0.2 184.8006,41.569 184.8006,92.6" id="Fill-1" fill="#08F29B" mask="url(#mask-2)"></path>
                </g>
                <path d="M136.6375,111.0568 L118.3875,129.3068 L75.2465,129.3068 L56.9965,111.0568 L56.9965,78.1368 L136.6375,78.1368 L136.6375,111.0568 Z M136.6375,129.3068 L126.8765,129.3068 L136.6375,119.5468 L136.6375,129.3068 Z M56.9965,129.3068 L56.9965,119.5468 L66.7565,129.3068 L56.9965,129.3068 Z M85.2965,72.1368 L108.2965,72.1368 L108.2965,65.4668 L85.2965,65.4668 L85.2965,72.1368 Z M111.2965,59.4668 L82.2965,59.4668 C80.6405,59.4668 79.2965,60.8098 79.2965,62.4668 L79.2965,72.1368 L53.9965,72.1368 C52.3405,72.1368 50.9965,73.4798 50.9965,75.1368 L50.9965,132.3068 C50.9965,133.9638 52.3405,135.3068 53.9965,135.3068 L139.6375,135.3068 C141.2935,135.3068 142.6375,133.9638 142.6375,132.3068 L142.6375,75.1368 C142.6375,73.4798 141.2935,72.1368 139.6375,72.1368 L114.2965,72.1368 L114.2965,62.4668 C114.2965,60.8098 112.9535,59.4668 111.2965,59.4668 L111.2965,59.4668 Z" id="Fill-4" fill="#F0F0F0"></path>
                <path d="M132.2205,107.0699 L113.9705,125.3199 L70.8295,125.3199 L52.5795,107.0699 L52.5795,74.1499 L132.2205,74.1499 L132.2205,107.0699 Z M132.2205,125.3199 L122.4595,125.3199 L132.2205,115.5599 L132.2205,125.3199 Z M52.5795,125.3199 L52.5795,115.5599 L62.3395,125.3199 L52.5795,125.3199 Z M80.8795,68.1499 L103.8795,68.1499 L103.8795,61.4799 L80.8795,61.4799 L80.8795,68.1499 Z M106.8795,55.4799 L77.8795,55.4799 C76.2235,55.4799 74.8795,56.8229 74.8795,58.4799 L74.8795,68.1499 L49.5795,68.1499 C47.9235,68.1499 46.5795,69.4929 46.5795,71.1499 L46.5795,128.3199 C46.5795,129.9769 47.9235,131.3199 49.5795,131.3199 L135.2205,131.3199 C136.8765,131.3199 138.2205,129.9769 138.2205,128.3199 L138.2205,71.1499 C138.2205,69.4929 136.8765,68.1499 135.2205,68.1499 L109.8795,68.1499 L109.8795,58.4799 C109.8795,56.8229 108.5365,55.4799 106.8795,55.4799 L106.8795,55.4799 Z" id="Fill-6" fill="#2AC1F0"></path>
            </g>
        </g>
    </g>
</svg>