<?xml version="1.0" encoding="UTF-8"?>
<svg width="185px" height="185px" viewBox="0 0 185 185" version="1.1" xmlns="http://www.w3.org/2000/svg" xmlns:xlink="http://www.w3.org/1999/xlink">
    <!-- Generator: Sketch 47.1 (45422) - http://www.bohemiancoding.com/sketch -->
    <title>Page 1</title>
    <desc>Created with Sketch.</desc>
    <defs>
        <polygon id="path-1" points="0 185 0 0.2 184.8 0.2 184.8 185"></polygon>
    </defs>
    <g id="Page-1" stroke="none" stroke-width="1" fill="none" fill-rule="evenodd">
        <g id="GoTo_EnquiryPage" transform="translate(-786.000000, -330.000000)">
            <g id="Page-1" transform="translate(786.000000, 329.000000)">
                <g id="Group-3" transform="translate(0.000000, 0.800000)">
                    <mask id="mask-2" fill="white">
                        <use xlink:href="#path-1"></use>
                    </mask>
                    <g id="Clip-2"></g>
                    <path d="M184.8006,92.6 C184.8006,143.631 143.4316,185 92.4006,185 C41.3686,185 -0.0004,143.631 -0.0004,92.6 C-0.0004,41.569 41.3686,0.2 92.4006,0.2 C143.4316,0.2 184.8006,41.569 184.8006,92.6" id="Fill-1" fill="#08F29B" mask="url(#mask-2)"></path>
                </g>
                <path d="M63.1405,56.4606 L108.1405,56.4606 L108.1405,73.9606 L108.1405,131.4606 L63.1405,131.4606 L63.1405,56.4606 Z M113.1405,131.4606 L133.1405,131.4606 L133.1405,76.4606 L113.1405,76.4606 L113.1405,131.4606 Z M58.1405,53.9606 L58.1405,133.9606 C58.1405,135.3416 59.2595,136.4606 60.6405,136.4606 L110.6405,136.4606 L135.6405,136.4606 C137.0215,136.4606 138.1405,135.3416 138.1405,133.9606 L138.1405,73.9606 C138.1405,72.5796 137.0215,71.4606 135.6405,71.4606 L113.1405,71.4606 L113.1405,53.9606 C113.1405,52.5796 112.0215,51.4606 110.6405,51.4606 L60.6405,51.4606 C59.2595,51.4606 58.1405,52.5796 58.1405,53.9606 L58.1405,53.9606 Z" id="Fill-4" fill="#F0F0F0"></path>
                <path d="M120.9012,76.8805 L115.9012,76.8805 C114.5202,76.8805 113.4012,77.9995 113.4012,79.3805 C113.4012,80.7615 114.5202,81.8805 115.9012,81.8805 L120.9012,81.8805 C122.2822,81.8805 123.4012,80.7615 123.4012,79.3805 C123.4012,77.9995 122.2822,76.8805 120.9012,76.8805 L120.9012,76.8805 Z M120.9012,86.8805 L115.9012,86.8805 C114.5202,86.8805 113.4012,87.9995 113.4012,89.3805 C113.4012,90.7615 114.5202,91.8805 115.9012,91.8805 L120.9012,91.8805 C122.2822,91.8805 123.4012,90.7615 123.4012,89.3805 C123.4012,87.9995 122.2822,86.8805 120.9012,86.8805 L120.9012,86.8805 Z M120.9012,96.8805 L115.9012,96.8805 C114.5202,96.8805 113.4012,97.9995 113.4012,99.3805 C113.4012,100.7615 114.5202,101.8805 115.9012,101.8805 L120.9012,101.8805 C122.2822,101.8805 123.4012,100.7615 123.4012,99.3805 C123.4012,97.9995 122.2822,96.8805 120.9012,96.8805 L120.9012,96.8805 Z M120.9012,106.8805 L115.9012,106.8805 C114.5202,106.8805 113.4012,107.9995 113.4012,109.3805 C113.4012,110.7615 114.5202,111.8805 115.9012,111.8805 L120.9012,111.8805 C122.2822,111.8805 123.4012,110.7615 123.4012,109.3805 C123.4012,107.9995 122.2822,106.8805 120.9012,106.8805 L120.9012,106.8805 Z M120.9012,116.8805 L115.9012,116.8805 C114.5202,116.8805 113.4012,117.9995 113.4012,119.3805 C113.4012,120.7615 114.5202,121.8805 115.9012,121.8805 L120.9012,121.8805 C122.2822,121.8805 123.4012,120.7615 123.4012,119.3805 C123.4012,117.9995 122.2822,116.8805 120.9012,116.8805 L120.9012,116.8805 Z M70.9012,116.8805 L65.9012,116.8805 C64.5202,116.8805 63.4012,117.9995 63.4012,119.3805 C63.4012,120.7615 64.5202,121.8805 65.9012,121.8805 L70.9012,121.8805 C72.2822,121.8805 73.4012,120.7615 73.4012,119.3805 C73.4012,117.9995 72.2822,116.8805 70.9012,116.8805 L70.9012,116.8805 Z M70.9012,106.8805 L65.9012,106.8805 C64.5202,106.8805 63.4012,107.9995 63.4012,109.3805 C63.4012,110.7615 64.5202,111.8805 65.9012,111.8805 L70.9012,111.8805 C72.2822,111.8805 73.4012,110.7615 73.4012,109.3805 C73.4012,107.9995 72.2822,106.8805 70.9012,106.8805 L70.9012,106.8805 Z M70.9012,96.8805 L65.9012,96.8805 C64.5202,96.8805 63.4012,97.9995 63.4012,99.3805 C63.4012,100.7615 64.5202,101.8805 65.9012,101.8805 L70.9012,101.8805 C72.2822,101.8805 73.4012,100.7615 73.4012,99.3805 C73.4012,97.9995 72.2822,96.8805 70.9012,96.8805 L70.9012,96.8805 Z M70.9012,86.8805 L65.9012,86.8805 C64.5202,86.8805 63.4012,87.9995 63.4012,89.3805 C63.4012,90.7615 64.5202,91.8805 65.9012,91.8805 L70.9012,91.8805 C72.2822,91.8805 73.4012,90.7615 73.4012,89.3805 C73.4012,87.9995 72.2822,86.8805 70.9012,86.8805 L70.9012,86.8805 Z M70.9012,76.8805 L65.9012,76.8805 C64.5202,76.8805 63.4012,77.9995 63.4012,79.3805 C63.4012,80.7615 64.5202,81.8805 65.9012,81.8805 L70.9012,81.8805 C72.2822,81.8805 73.4012,80.7615 73.4012,79.3805 C73.4012,77.9995 72.2822,76.8805 70.9012,76.8805 L70.9012,76.8805 Z M70.9012,66.8805 L65.9012,66.8805 C64.5202,66.8805 63.4012,67.9995 63.4012,69.3805 C63.4012,70.7615 64.5202,71.8805 65.9012,71.8805 L70.9012,71.8805 C72.2822,71.8805 73.4012,70.7615 73.4012,69.3805 C73.4012,67.9995 72.2822,66.8805 70.9012,66.8805 L70.9012,66.8805 Z M70.9012,56.8805 L65.9012,56.8805 C64.5202,56.8805 63.4012,57.9995 63.4012,59.3805 C63.4012,60.7615 64.5202,61.8805 65.9012,61.8805 L70.9012,61.8805 C72.2822,61.8805 73.4012,60.7615 73.4012,59.3805 C73.4012,57.9995 72.2822,56.8805 70.9012,56.8805 L70.9012,56.8805 Z M83.4012,116.8805 L78.4012,116.8805 C77.0202,116.8805 75.9012,117.9995 75.9012,119.3805 C75.9012,120.7615 77.0202,121.8805 78.4012,121.8805 L83.4012,121.8805 C84.7822,121.8805 85.9012,120.7615 85.9012,119.3805 C85.9012,117.9995 84.7822,116.8805 83.4012,116.8805 L83.4012,116.8805 Z M83.4012,106.8805 L78.4012,106.8805 C77.0202,106.8805 75.9012,107.9995 75.9012,109.3805 C75.9012,110.7615 77.0202,111.8805 78.4012,111.8805 L83.4012,111.8805 C84.7822,111.8805 85.9012,110.7615 85.9012,109.3805 C85.9012,107.9995 84.7822,106.8805 83.4012,106.8805 L83.4012,106.8805 Z M83.4012,96.8805 L78.4012,96.8805 C77.0202,96.8805 75.9012,97.9995 75.9012,99.3805 C75.9012,100.7615 77.0202,101.8805 78.4012,101.8805 L83.4012,101.8805 C84.7822,101.8805 85.9012,100.7615 85.9012,99.3805 C85.9012,97.9995 84.7822,96.8805 83.4012,96.8805 L83.4012,96.8805 Z M83.4012,86.8805 L78.4012,86.8805 C77.0202,86.8805 75.9012,87.9995 75.9012,89.3805 C75.9012,90.7615 77.0202,91.8805 78.4012,91.8805 L83.4012,91.8805 C84.7822,91.8805 85.9012,90.7615 85.9012,89.3805 C85.9012,87.9995 84.7822,86.8805 83.4012,86.8805 L83.4012,86.8805 Z M83.4012,76.8805 L78.4012,76.8805 C77.0202,76.8805 75.9012,77.9995 75.9012,79.3805 C75.9012,80.7615 77.0202,81.8805 78.4012,81.8805 L83.4012,81.8805 C84.7822,81.8805 85.9012,80.7615 85.9012,79.3805 C85.9012,77.9995 84.7822,76.8805 83.4012,76.8805 L83.4012,76.8805 Z M83.4012,66.8805 L78.4012,66.8805 C77.0202,66.8805 75.9012,67.9995 75.9012,69.3805 C75.9012,70.7615 77.0202,71.8805 78.4012,71.8805 L83.4012,71.8805 C84.7822,71.8805 85.9012,70.7615 85.9012,69.3805 C85.9012,67.9995 84.7822,66.8805 83.4012,66.8805 L83.4012,66.8805 Z M83.4012,56.8805 L78.4012,56.8805 C77.0202,56.8805 75.9012,57.9995 75.9012,59.3805 C75.9012,60.7615 77.0202,61.8805 78.4012,61.8805 L83.4012,61.8805 C84.7822,61.8805 85.9012,60.7615 85.9012,59.3805 C85.9012,57.9995 84.7822,56.8805 83.4012,56.8805 L83.4012,56.8805 Z M95.9012,116.8805 L90.9012,116.8805 C89.5202,116.8805 88.4012,117.9995 88.4012,119.3805 C88.4012,120.7615 89.5202,121.8805 90.9012,121.8805 L95.9012,121.8805 C97.2822,121.8805 98.4012,120.7615 98.4012,119.3805 C98.4012,117.9995 97.2822,116.8805 95.9012,116.8805 L95.9012,116.8805 Z M95.9012,106.8805 L90.9012,106.8805 C89.5202,106.8805 88.4012,107.9995 88.4012,109.3805 C88.4012,110.7615 89.5202,111.8805 90.9012,111.8805 L95.9012,111.8805 C97.2822,111.8805 98.4012,110.7615 98.4012,109.3805 C98.4012,107.9995 97.2822,106.8805 95.9012,106.8805 L95.9012,106.8805 Z M95.9012,96.8805 L90.9012,96.8805 C89.5202,96.8805 88.4012,97.9995 88.4012,99.3805 C88.4012,100.7615 89.5202,101.8805 90.9012,101.8805 L95.9012,101.8805 C97.2822,101.8805 98.4012,100.7615 98.4012,99.3805 C98.4012,97.9995 97.2822,96.8805 95.9012,96.8805 L95.9012,96.8805 Z M95.9012,86.8805 L90.9012,86.8805 C89.5202,86.8805 88.4012,87.9995 88.4012,89.3805 C88.4012,90.7615 89.5202,91.8805 90.9012,91.8805 L95.9012,91.8805 C97.2822,91.8805 98.4012,90.7615 98.4012,89.3805 C98.4012,87.9995 97.2822,86.8805 95.9012,86.8805 L95.9012,86.8805 Z M95.9012,76.8805 L90.9012,76.8805 C89.5202,76.8805 88.4012,77.9995 88.4012,79.3805 C88.4012,80.7615 89.5202,81.8805 90.9012,81.8805 L95.9012,81.8805 C97.2822,81.8805 98.4012,80.7615 98.4012,79.3805 C98.4012,77.9995 97.2822,76.8805 95.9012,76.8805 L95.9012,76.8805 Z M95.9012,66.8805 L90.9012,66.8805 C89.5202,66.8805 88.4012,67.9995 88.4012,69.3805 C88.4012,70.7615 89.5202,71.8805 90.9012,71.8805 L95.9012,71.8805 C97.2822,71.8805 98.4012,70.7615 98.4012,69.3805 C98.4012,67.9995 97.2822,66.8805 95.9012,66.8805 L95.9012,66.8805 Z M95.9012,56.8805 L90.9012,56.8805 C89.5202,56.8805 88.4012,57.9995 88.4012,59.3805 C88.4012,60.7615 89.5202,61.8805 90.9012,61.8805 L95.9012,61.8805 C97.2822,61.8805 98.4012,60.7615 98.4012,59.3805 C98.4012,57.9995 97.2822,56.8805 95.9012,56.8805 L95.9012,56.8805 Z M58.4012,51.8805 L103.4012,51.8805 L103.4012,69.3805 L103.4012,126.8805 L58.4012,126.8805 L58.4012,51.8805 Z M108.4012,126.8805 L128.4012,126.8805 L128.4012,71.8805 L108.4012,71.8805 L108.4012,126.8805 Z M53.4012,49.3805 L53.4012,129.3805 C53.4012,130.7615 54.5202,131.8805 55.9012,131.8805 L105.9012,131.8805 L130.9012,131.8805 C132.2822,131.8805 133.4012,130.7615 133.4012,129.3805 L133.4012,69.3805 C133.4012,67.9995 132.2822,66.8805 130.9012,66.8805 L108.4012,66.8805 L108.4012,49.3805 C108.4012,47.9995 107.2822,46.8805 105.9012,46.8805 L55.9012,46.8805 C54.5202,46.8805 53.4012,47.9995 53.4012,49.3805 L53.4012,49.3805 Z" id="Fill-6" fill="#2AC1F0"></path>
            </g>
        </g>
    </g>
</svg>