<?xml version="1.0" encoding="UTF-8"?>
<svg width="185px" height="185px" viewBox="0 0 185 185" version="1.1" xmlns="http://www.w3.org/2000/svg" xmlns:xlink="http://www.w3.org/1999/xlink">
    <!-- Generator: Sketch 47.1 (45422) - http://www.bohemiancoding.com/sketch -->
    <title>Page 1</title>
    <desc>Created with Sketch.</desc>
    <defs>
        <polygon id="path-1" points="92.39995 0.2 0 0.2 0 185 92.39995 185 184.7999 185 184.7999 0.2"></polygon>
        <polygon id="path-3" points="0 185.8 184.8 185.8 184.8 1 0 1"></polygon>
    </defs>
    <g id="Page-1" stroke="none" stroke-width="1" fill="none" fill-rule="evenodd">
        <g id="GoTo_EnquiryPage" transform="translate(-472.000000, -330.000000)">
            <g id="Page-1" transform="translate(472.000000, 329.000000)">
                <g id="Group-3" transform="translate(0.000000, 0.800000)">
                    <mask id="mask-2" fill="white">
                        <use xlink:href="#path-1"></use>
                    </mask>
                    <g id="Clip-2"></g>
                    <path d="M184.7999,92.6 C184.7999,143.631 143.4309,185 92.4009,185 C41.3689,185 -0.0001,143.631 -0.0001,92.6 C-0.0001,41.569 41.3689,0.2 92.4009,0.2 C143.4309,0.2 184.7999,41.569 184.7999,92.6" id="Fill-1" fill="#08F29B" mask="url(#mask-2)"></path>
                </g>
                <mask id="mask-4" fill="white">
                    <use xlink:href="#path-3"></use>
                </mask>
                <g id="Clip-5"></g>
                <path d="M53.321,131.883 L137.321,131.883 L137.321,127.883 L53.321,127.883 L53.321,131.883 Z M55.321,123.883 L135.321,123.883 L135.321,119.883 L55.321,119.883 L55.321,123.883 Z M123.321,115.883 L127.321,115.883 L127.321,77.883 L123.321,77.883 L123.321,115.883 Z M111.321,115.883 L119.321,115.883 L119.321,77.883 L111.321,77.883 L111.321,115.883 Z M103.321,115.883 L107.321,115.883 L107.321,77.883 L103.321,77.883 L103.321,115.883 Z M91.321,115.883 L99.321,115.883 L99.321,77.883 L91.321,77.883 L91.321,115.883 Z M83.321,115.883 L87.321,115.883 L87.321,77.883 L83.321,77.883 L83.321,115.883 Z M71.321,115.883 L79.321,115.883 L79.321,77.883 L71.321,77.883 L71.321,115.883 Z M63.321,115.883 L67.321,115.883 L67.321,77.883 L63.321,77.883 L63.321,115.883 Z M95.321,61.883 C96.45,61.883 97.321,62.755 97.321,63.883 C97.321,65.012 96.45,65.883 95.321,65.883 C94.193,65.883 93.321,65.012 93.321,63.883 C93.321,62.755 94.193,61.883 95.321,61.883 L95.321,61.883 Z M95.321,57.883 C92.031,57.883 89.321,60.593 89.321,63.883 C89.321,67.173 92.031,69.883 95.321,69.883 C98.611,69.883 101.321,67.173 101.321,63.883 C101.321,60.593 98.611,57.883 95.321,57.883 L95.321,57.883 Z M95.321,50.29 L130.696,73.883 L59.946,73.883 L95.321,50.29 Z M95.321,45.883 C94.824,45.913 94.468,46.021 94.196,46.196 L52.196,74.196 C51.465,74.661 51.1,75.648 51.353,76.477 C51.607,77.307 52.455,77.906 53.321,77.883 L59.321,77.883 L59.321,115.883 L53.321,115.883 C52.217,115.884 51.322,116.779 51.321,117.883 L51.321,123.883 C50.217,123.884 49.322,124.779 49.321,125.883 L49.321,133.883 C49.322,134.988 50.217,135.883 51.321,135.883 L139.321,135.883 C140.426,135.883 141.321,134.988 141.321,133.883 L141.321,125.883 C141.321,124.779 140.426,123.884 139.321,123.883 L139.321,117.883 C139.321,116.779 138.426,115.884 137.321,115.883 L131.321,115.883 L131.321,77.883 L137.321,77.883 C138.189,77.906 139.037,77.307 139.29,76.477 C139.544,75.648 139.179,74.661 138.446,74.196 L96.446,46.196 C96.054,45.939 95.751,45.881 95.321,45.883 L95.321,45.883 Z" id="Fill-4" fill="#F0F0F0" mask="url(#mask-4)"></path>
                <path d="M50.401,128.651 L134.401,128.651 L134.401,124.651 L50.401,124.651 L50.401,128.651 Z M52.401,120.651 L132.401,120.651 L132.401,116.651 L52.401,116.651 L52.401,120.651 Z M120.401,112.651 L124.401,112.651 L124.401,74.651 L120.401,74.651 L120.401,112.651 Z M108.401,112.651 L116.401,112.651 L116.401,74.651 L108.401,74.651 L108.401,112.651 Z M100.401,112.651 L104.401,112.651 L104.401,74.651 L100.401,74.651 L100.401,112.651 Z M88.401,112.651 L96.401,112.651 L96.401,74.651 L88.401,74.651 L88.401,112.651 Z M80.401,112.651 L84.401,112.651 L84.401,74.651 L80.401,74.651 L80.401,112.651 Z M68.401,112.651 L76.401,112.651 L76.401,74.651 L68.401,74.651 L68.401,112.651 Z M60.401,112.651 L64.401,112.651 L64.401,74.651 L60.401,74.651 L60.401,112.651 Z M92.401,58.651 C93.528,58.651 94.401,59.523 94.401,60.651 C94.401,61.78 93.528,62.651 92.401,62.651 C91.272,62.651 90.401,61.78 90.401,60.651 C90.401,59.523 91.272,58.651 92.401,58.651 L92.401,58.651 Z M92.401,54.652 C89.11,54.652 86.401,57.361 86.401,60.651 C86.401,63.942 89.11,66.651 92.401,66.651 C95.691,66.651 98.401,63.942 98.401,60.651 C98.401,57.361 95.691,54.652 92.401,54.652 L92.401,54.652 Z M92.401,47.058 L127.776,70.651 L57.026,70.651 L92.401,47.058 Z M92.401,42.652 C91.902,42.68 91.546,42.789 91.276,42.964 L49.276,70.964 C48.543,71.429 48.178,72.416 48.432,73.245 C48.685,74.075 49.533,74.674 50.401,74.651 L56.401,74.651 L56.401,112.651 L50.401,112.651 C49.296,112.651 48.401,113.547 48.401,114.651 L48.401,120.651 C47.296,120.651 46.401,121.547 46.401,122.651 L46.401,130.651 C46.401,131.756 47.296,132.651 48.401,132.651 L136.401,132.651 C137.505,132.651 138.4,131.756 138.401,130.651 L138.401,122.651 C138.4,121.547 137.505,120.651 136.401,120.651 L136.401,114.651 C136.4,113.547 135.505,112.651 134.401,112.651 L128.401,112.651 L128.401,74.651 L134.401,74.651 C135.267,74.674 136.115,74.075 136.369,73.245 C136.622,72.416 136.257,71.429 135.526,70.964 L93.526,42.964 C93.133,42.707 92.829,42.65 92.401,42.652 L92.401,42.652 Z" id="Fill-6" fill="#2AC1F0" mask="url(#mask-4)"></path>
            </g>
        </g>
    </g>
</svg>